<?xml version="1.0" encoding="utf-8"?>
<!-- Generator: Adobe Illustrator 23.0.1, SVG Export Plug-In . SVG Version: 6.00 Build 0)  -->
<svg version="1.1" id="Layer_1" xmlns="http://www.w3.org/2000/svg" xmlns:xlink="http://www.w3.org/1999/xlink" x="0px" y="0px"
	 viewBox="0 0 194.2 173.6" style="enable-background:new 0 0 194.2 173.6;" xml:space="preserve">
<style type="text/css">
	.st0{fill:#66C1F5;}
	.st1{fill:none;}
	.st2{fill:#1E6D9A;}
</style>
<g>
	<path class="st0" d="M19.9,93.8c0.5,0.2,0.9,0.3,1.4,0.3c1.3,0,2.6-0.8,3.2-2.1c0.7-1.5,1.8-3.3,3.3-5c1.2-1.5,1-3.7-0.5-4.9
		s-3.7-1-4.9,0.5c-1.9,2.3-3.3,4.5-4.3,6.6C17.3,91,18.1,93,19.9,93.8z"/>
	<path class="st1" d="M7,164.9l53.9-12l0.7-0.2h0.8V14.2L7,26.6V164.9z M57.7,125.1c0,1.9-1.6,3.4-3.5,3.4c0,0,0,0-0.1,0
		c-3.2,0-6.1-0.8-8.4-2.3c-1.6-1-2.1-3.1-1-4.8c1-1.6,3.1-2.1,4.8-1.1c1.3,0.8,2.9,1.2,4.8,1.2C56.2,121.6,57.7,123.2,57.7,125.1z
		 M47.9,90.6c0.3-1.2,0.5-2.2,0.5-3.2c0-0.7,0-1.3-0.2-1.9c-0.3-1.9,0.9-3.7,2.8-4c1.9-0.3,3.7,0.9,4,2.8c0.2,1,0.3,2.1,0.3,3.2
		c0,1.7-0.2,3.3-0.7,4.9l-0.1,0.4c-0.5,1.5-1.8,2.4-3.3,2.4c-0.4,0-0.7,0-1.1-0.2C48.3,94.4,47.3,92.4,47.9,90.6z M49.2,105.8
		c-0.9,2.4-1.6,4.4-2,6.1c-0.4,1.6-1.8,2.7-3.4,2.7c-0.3,0-0.5,0-0.8-0.1c-1.9-0.5-3-2.3-2.6-4.2c0.5-2.1,1.2-4.3,2.3-7.1
		c0.7-1.8,2.7-2.7,4.5-2C49,102,49.9,104,49.2,105.8z M34.6,73.1l0.6-0.2c2.8-1,5.6-1.2,8-0.9c1.9,0.3,3.2,2.1,2.9,4
		c-0.3,1.9-2.1,3.2-4,2.9c-1.4-0.2-3,0-4.7,0.5l-0.3,0.1c-0.4,0.2-0.8,0.2-1.2,0.2c-1.4,0-2.7-0.9-3.2-2.2
		C31.9,75.8,32.8,73.8,34.6,73.1z M18.1,89.2c0.9-2.1,2.4-4.3,4.3-6.6c1.2-1.5,3.4-1.7,4.9-0.5s1.7,3.4,0.5,4.9
		c-1.4,1.7-2.6,3.5-3.3,5c-0.6,1.3-1.9,2.1-3.2,2.1c-0.5,0-0.9-0.1-1.4-0.3C18.1,93,17.3,91,18.1,89.2z"/>
	<path class="st1" d="M132.6,27.9h-0.8v90.9c1.1-1.5,3.3-1.8,4.8-0.7c1.9,1.4,3.7,2.5,5.4,3.5c1.7,0.9,2.3,3,1.4,4.7
		c-0.6,1.2-1.8,1.9-3.1,1.9c-0.5,0-1.1-0.1-1.6-0.4c-2.1-1.1-4.1-2.4-6.3-4c-0.3-0.2-0.5-0.5-0.7-0.7v43.3l55.5-12.3h0.1V15.8
		l-54,12L132.6,27.9z M176.4,113.5c-0.5,2.8-1.3,5.3-2.4,7.5c-0.6,1.2-1.8,1.9-3.1,1.9c-0.5,0-1-0.1-1.6-0.3c-1.7-0.9-2.4-3-1.6-4.7
		c0.8-1.6,1.4-3.5,1.8-5.7c0.3-1.9,2.2-3.1,4-2.8C175.5,109.8,176.8,111.7,176.4,113.5z M175.3,91.5c0.5,2.4,1,4.8,1.2,7.1
		c0.2,1.9-1.1,3.7-3,3.9c-0.2,0-0.3,0-0.4,0c-1.7,0-3.2-1.3-3.4-3c-0.2-2.1-0.6-4.3-1.1-6.5c-0.4-1.9,0.8-3.7,2.6-4.2
		C173,88.4,174.9,89.6,175.3,91.5z M163.1,69.7c1.7-0.9,3.8-0.3,4.7,1.4c1.1,2.1,2.1,4.3,3.1,6.6c0.7,1.8-0.1,3.8-1.9,4.5
		c-0.4,0.2-0.9,0.2-1.4,0.2c-1.4,0-2.6-0.8-3.2-2.1c-0.9-2.1-1.8-4.1-2.8-6C160.8,72.7,161.5,70.6,163.1,69.7z M153.7,125h0.9
		c1.2,0,2.4-0.1,3.7-0.3c0.4,0,0.9-0.1,1.3-0.2c1.8-0.4,3.7,0.7,4.2,2.6c0.5,1.9-0.7,3.8-2.6,4.2c-0.6,0.1-1.3,0.3-1.9,0.3
		c-1.6,0.2-3.2,0.3-4.8,0.3l-1.1,0c-1.9,0-3.5-1.7-3.4-3.6C150.2,126.4,151.8,124.9,153.7,125z"/>
	<path class="st0" d="M35.8,79.8c0.4,0,0.9-0.1,1.2-0.2l0.3-0.1c1.7-0.6,3.3-0.8,4.7-0.5c1.9,0.3,3.7-1,4-2.9c0.3-1.9-1-3.7-2.9-4
		c-2.4-0.3-5.2-0.1-8,0.9l-0.6,0.2c-1.8,0.7-2.7,2.7-2,4.5C33.1,78.9,34.4,79.8,35.8,79.8z"/>
	<path class="st0" d="M49.5,120.4c-1.6-1-3.8-0.5-4.8,1.1c-1,1.6-0.5,3.8,1,4.8c2.4,1.5,5.2,2.3,8.4,2.3c0,0,0,0,0.1,0
		c1.9,0,3.4-1.5,3.5-3.4c0-1.9-1.5-3.5-3.4-3.5C52.3,121.6,50.8,121.2,49.5,120.4z"/>
	<path class="st0" d="M153.5,131.9l1.1,0c1.6,0,3.2-0.1,4.8-0.3c0.7-0.1,1.3-0.2,1.9-0.3c1.9-0.4,3-2.3,2.6-4.2
		c-0.5-1.9-2.4-3-4.2-2.6c-0.4,0.1-0.9,0.2-1.3,0.2c-1.3,0.2-2.5,0.3-3.7,0.3h-0.9c-1.9-0.1-3.5,1.4-3.6,3.4
		C150.1,130.3,151.6,131.9,153.5,131.9z"/>
	<path class="st0" d="M42.7,103.2c-1,2.7-1.8,5-2.3,7.1c-0.4,1.9,0.7,3.7,2.6,4.2c0.3,0.1,0.5,0.1,0.8,0.1c1.6,0,3-1.1,3.4-2.7
		c0.4-1.7,1.1-3.7,2-6.1c0.7-1.8-0.2-3.8-1.9-4.5C45.4,100.6,43.4,101.4,42.7,103.2z"/>
	<path class="st0" d="M50.1,95c0.3,0.1,0.7,0.2,1.1,0.2c1.5,0,2.8-0.9,3.3-2.4l0.1-0.4c0.5-1.6,0.7-3.3,0.7-4.9
		c0-1.1-0.1-2.1-0.3-3.2c-0.3-1.9-2.1-3.1-4-2.8c-1.9,0.3-3.1,2.1-2.8,4c0.1,0.6,0.2,1.3,0.2,1.9c0,1-0.2,2.1-0.5,3.2
		C47.3,92.4,48.3,94.4,50.1,95z"/>
	<path class="st0" d="M173.6,109.5c-1.9-0.3-3.7,0.9-4,2.8c-0.4,2.1-1,4-1.8,5.7c-0.9,1.7-0.2,3.8,1.6,4.7c0.5,0.2,1,0.3,1.6,0.3
		c1.3,0,2.5-0.7,3.1-1.9c1.1-2.2,1.9-4.7,2.4-7.5C176.8,111.7,175.5,109.8,173.6,109.5z"/>
	<path class="st0" d="M168.5,93c0.5,2.2,0.9,4.4,1.1,6.5c0.2,1.7,1.7,3,3.4,3c0.2,0,0.3,0,0.4,0c1.9-0.2,3.3-2,3-3.9
		c-0.3-2.3-0.7-4.7-1.2-7.1c-0.4-1.8-2.3-3-4.1-2.6C169.3,89.3,168.1,91.2,168.5,93z"/>
	<path class="st0" d="M164.5,80.4c0.5,1.3,1.8,2.1,3.2,2.1c0.5,0,1-0.1,1.4-0.2c1.8-0.7,2.6-2.8,1.9-4.5c-1-2.3-2-4.5-3.1-6.6
		c-0.9-1.7-3-2.3-4.7-1.4c-1.7,0.9-2.3,3-1.4,4.7C162.7,76.2,163.6,78.3,164.5,80.4z"/>
	<path class="st0" d="M86.2,101.1c-1.7,1.6-3.5,3.3-5.1,5c-1.3,1.4-1.3,3.6,0.1,4.9c0.7,0.7,1.6,1,2.4,1c0.9,0,1.8-0.3,2.5-1
		c1.6-1.6,3.2-3.3,4.8-4.7c1.4-1.3,1.6-3.5,0.3-4.9C89.8,99.9,87.6,99.8,86.2,101.1z"/>
	<polygon class="st1" points="7,164.9 60.9,152.9 61.6,152.7 62.4,152.7 62.4,14.2 7,26.6 	"/>
	<path class="st1" d="M132.6,27.9h-0.8l0,95.2c1.1-1.5,3.3-6,4.8-4.9c1.9,1.4,3.7,2.5,5.4,3.5c1.7,0.9,2.3,3,1.4,4.7
		c-0.6,1.2-1.8,1.9-3.1,1.9c-0.5,0-1.1-0.1-1.6-0.4c-2.1-1.1-4.1-2.4-6.3-4c-0.3-0.2-0.5-0.5-0.7-0.7v43.3l55.5-12.3h0.1V15.8
		l-54,12L132.6,27.9z"/>
	<polygon class="st1" points="7,164.9 60.9,152.9 61.6,152.7 62.4,152.7 62.4,14.2 7,26.6 	"/>
	<polygon class="st1" points="132.6,27.9 131.8,27.9 131.8,123.1 131.8,166.5 187.2,154.1 187.3,154.1 187.3,15.8 133.3,27.8 	"/>
	<path class="st1" d="M86.2,101.1c-1.7,1.6-3.5,3.3-5.1,5c-1.3,1.4-1.3,3.6,0.1,4.9c0.7,0.7,1.6,1,2.4,1c0.9,0,1.8-0.3,2.5-1
		c1.6-1.6,3.2-3.3,4.8-4.7c1.4-1.3,1.6-3.5,0.3-4.9C89.8,99.9,87.6,99.8,86.2,101.1z"/>
	<path class="st1" d="M108.8,96.4c-2.8-1.3-5.5-1.9-8.1-1.9h0c-1.9,0-3.5,1.6-3.5,3.5s1.5,3.5,3.4,3.5c1.7,0,3.4,0.4,5.3,1.3
		c0.5,0.2,1,0.3,1.4,0.3c1.3,0,2.6-0.7,3.1-2C111.4,99.2,110.6,97.2,108.8,96.4z"/>
	<path class="st1" d="M108.8,96.4c-2.8-1.3-5.5-1.9-8.1-1.9h0c-1.9,0-3.5,1.6-3.5,3.5s1.5,3.5,3.4,3.5c1.7,0,3.4,0.4,5.3,1.3
		c0.5,0.2,1,0.3,1.4,0.3c1.3,0,2.6-0.7,3.1-2C111.4,99.2,110.6,97.2,108.8,96.4z"/>
	<polygon class="st1" points="7,164.9 60.9,152.9 61.6,152.7 62.4,152.7 62.4,14.2 7,26.6 	"/>
	<path class="st1" d="M124.8,27.9v80.4c-1.3-1.2-2.5-2.3-3.8-3.4c1.3,1.1,2.6,9.3,3.8,10.4l0-2L124.8,27.9z"/>
	<path class="st1" d="M86.2,101.1c-1.7,1.6-3.5,3.3-5.1,5c-1.3,1.4-1.3,3.6,0.1,4.9c0.7,0.7,1.6,1,2.4,1c0.9,0,1.8-0.3,2.5-1
		c1.6-1.6,3.2-3.3,4.8-4.7c1.4-1.3,1.6-3.5,0.3-4.9C89.8,99.9,87.6,99.8,86.2,101.1z"/>
	<polygon class="st1" points="132.6,27.9 131.8,27.9 131.8,123.1 131.8,166.5 187.2,154.1 187.3,154.1 187.3,15.8 133.3,27.8 	"/>
	<polygon class="st1" points="7,164.9 60.9,152.9 61.6,152.7 62.4,152.7 62.4,14.2 7,26.6 	"/>
	<polygon class="st1" points="132.6,27.9 131.8,27.9 131.8,123.1 131.8,166.5 187.2,154.1 187.3,154.1 187.3,15.8 133.3,27.8 	"/>
	<polygon class="st1" points="132.6,27.9 131.8,27.9 131.8,123.1 131.8,166.5 187.2,154.1 187.3,154.1 187.3,15.8 133.3,27.8 	"/>
	<polygon class="st1" points="7,164.9 60.9,152.9 61.6,152.7 62.4,152.7 62.4,14.2 7,26.6 	"/>
	<polygon class="st1" points="132.6,27.9 131.8,27.9 131.8,123.1 131.8,166.5 187.2,154.1 187.3,154.1 187.3,15.8 133.3,27.8 	"/>
	<polygon class="st1" points="7,164.9 60.9,152.9 61.6,152.7 62.4,152.7 62.4,14.2 7,26.6 	"/>
	<path class="st1" d="M86.2,101.1c-1.7,1.6-3.5,3.3-5.1,5c-1.3,1.4-1.3,3.6,0.1,4.9c0.7,0.7,1.6,1,2.4,1c0.9,0,1.8-0.3,2.5-1
		c1.6-1.6,3.2-3.3,4.8-4.7c1.4-1.3,1.6-3.5,0.3-4.9C89.8,99.9,87.6,99.8,86.2,101.1z"/>
	<path class="st1" d="M108.8,96.4c-2.8-1.3-5.5-1.9-8.1-1.9h0c-1.9,0-3.5,1.6-3.5,3.5s1.5,3.5,3.4,3.5c1.7,0,3.4,0.4,5.3,1.3
		c0.5,0.2,1,0.3,1.4,0.3c1.3,0,2.6-0.7,3.1-2C111.4,99.2,110.6,97.2,108.8,96.4z"/>
	<path class="st1" d="M124.8,27.9v80.4c-1.3-1.2-2.5-2.3-3.8-3.4c-1.5-1.2-3.7-1.1-4.9,0.3s-1.1,3.7,0.3,4.9
		c1.7,1.4,3.3,2.9,5.1,4.6c0.7,0.6,1.4,0.9,2.2,0.9c0.3,0,0.7-0.1,1-0.2l0-2L124.8,27.9z"/>
	<polygon class="st1" points="7,164.9 60.9,152.9 61.6,152.7 62.4,152.7 62.4,14.2 7,26.6 	"/>
	<polygon class="st1" points="132.6,27.9 131.8,27.9 131.8,123.1 131.8,166.5 187.2,154.1 187.3,154.1 187.3,15.8 133.3,27.8 	"/>
	<polygon class="st1" points="132.6,27.9 131.8,27.9 131.8,123.1 131.8,166.5 187.2,154.1 187.3,154.1 187.3,15.8 133.3,27.8 	"/>
	<polygon class="st1" points="7,164.9 60.9,152.9 61.6,152.7 62.4,152.7 62.4,14.2 7,26.6 	"/>
	<path class="st1" d="M86.2,101.1c-1.7,1.6-3.5,3.3-5.1,5c-1.3,1.4-1.3,3.6,0.1,4.9c0.7,0.7,1.6,1,2.4,1c0.9,0,1.8-0.3,2.5-1
		c1.6-1.6,3.2-3.3,4.8-4.7c1.4-1.3,1.6-3.5,0.3-4.9C89.8,99.9,87.6,99.8,86.2,101.1z"/>
	<path class="st1" d="M69.3,124.2v0.4c0.7-0.4,1.3-8.9,2-9.4C70.6,115.7,70,123.8,69.3,124.2z"/>
	<path class="st1" d="M124.8,27.9v80.4c-1.3-1.2-2.5-2.3-3.8-3.4c-1.5-1.2-3.7-1.1-4.9,0.3s-1.1,3.7,0.3,4.9
		c1.7,1.4,3.3,2.9,5.1,4.6c0.7,0.6,1.4,0.9,2.2,0.9c0.3,0,0.7-0.1,1-0.2l0-2L124.8,27.9z"/>
	<path class="st1" d="M108.8,96.4c-2.8-1.3-5.5-1.9-8.1-1.9h0c-1.9,0-3.5,1.6-3.5,3.5s1.5,3.5,3.4,3.5c1.7,0,3.4,0.4,5.3,1.3
		c0.5,0.2,1,0.3,1.4,0.3c1.3,0,2.6-0.7,3.1-2C111.4,99.2,110.6,97.2,108.8,96.4z"/>
	<path class="st1" d="M69.3,116.6v3.3v4.4c0.7-0.4,1.3-8.5,2-9C70.6,115.7,70,116.1,69.3,116.6z"/>
	<path class="st1" d="M121.5,114.7c-1.9-1.7-3.5-3.1-5.1-4.6c-1.4-1.2-1.6-3.5-0.3-4.9s3.4-1.6,4.9-0.3c1.3,1.1,2.5,2.2,3.8,3.4
		V27.9h-0.9l-0.8-0.2L69.3,14.3v102.3c0.7-0.4,1.3-0.9,2-1.4c1.5-1.1,3.7-0.8,4.9,0.7c1.1,1.5,0.8,3.7-0.7,4.9
		c-0.9,0.7-1.9,1.4-2.9,2c-0.9,0.6-2.1,1.2-3.3,1.8v28.2h0.9L71,153l53.8,13.4v-51.1c-0.3,0.1-0.7,0.2-1,0.2
		C122.9,115.5,122.2,115.3,121.5,114.7z M90.8,106.2c-1.6,1.4-3.2,3.1-4.8,4.7c-0.7,0.7-1.6,1-2.5,1c-0.9,0-1.7-0.3-2.4-1
		c-1.4-1.3-1.4-3.5-0.1-4.9c1.6-1.7,3.4-3.5,5.1-5c1.4-1.3,3.6-1.2,4.9,0.3C92.3,102.7,92.2,104.9,90.8,106.2z M110.5,101
		c-0.6,1.3-1.8,2-3.1,2c-0.5,0-1-0.1-1.4-0.3c-1.9-0.9-3.6-1.3-5.3-1.3c-1.9,0-3.4-1.6-3.4-3.5s1.6-3.5,3.5-3.5h0
		c2.6,0,5.4,0.7,8.1,1.9C110.6,97.2,111.4,99.2,110.5,101z"/>
	<path class="st0" d="M77.4,119.1c1.5-1.2,1.8-3.3,0.7-4.9c-1.2-1.5-5.7,0.8-7.2,2c-1,0.4-0.8,1.9-0.4,3.3c0.5,1.7,2.5,2.5,4,1.5
		c0,0,0,0,0,0C75.6,120.4,76.5,119.8,77.4,119.1z"/>
	<path class="st2" d="M131.8,21h-7L69.4,7.1h-7L0,21v152.6l62.4-13.9h7l55.5,13.9h7l62.4-13.9V7.1L131.8,21z M62.4,152.7h-0.8
		l-0.7,0.2L7,164.9V26.6l55.5-12.3V152.7z M124.8,166.4L71,153l-0.8-0.2h-0.9v-28.2v-0.4v-4.4v-3.3V14.3l53.8,13.4l0.8,0.2h0.9
		l0,85.4l0,2V166.4z M187.3,154.1L187.3,154.1l-55.5,12.3v-43.3l0-95.2h0.8l0.7-0.2l54-12V154.1z"/>
	<path class="st0" d="M114.2,104.9c-1.2,1.4-1.1,3.7,0.3,4.9c1.7,1.4,3.3,2.9,5.1,4.6c0.7,0.6,1.4,0.9,2.2,0.9
		c1-1.1,0.8-1.4,1.4-2.8c0.7-1.6,0.3-3.5-0.9-4.8c-1.2-1.2-2.5-2.5-3.2-3.1C117.6,103.3,115.4,103.4,114.2,104.9z"/>
	<path class="st0" d="M135.5,120.8c-0.6,1.3-0.2,2.9,1,3.7c1.5,1,3,1.9,4.4,2.7c0.5,0.3,1.1,0.4,1.6,0.4c1.2,0,2.4-0.7,3.1-1.9
		c0.9-1.7,0.2-3.8-1.4-4.7c-1.7-0.9-2.7-2.3-5.2-3C137.9,117.6,136.4,119,135.5,120.8z"/>
	<path class="st0" d="M144.2,121c-1.7-0.9-3.1-3.6-5.4-3.5c-2.7,0.2-2.3,1.5-3.3,3.3"/>
	<path class="st0" d="M108.8,96.4c-2.8-1.3-5.5-1.9-8.1-1.9h0c-1.9,0-3.5,1.6-3.5,3.5s1.5,3.5,3.4,3.5c1.7,0,3.4,0.4,5.3,1.3
		c0.5,0.2,1,0.3,1.4,0.3c1.3,0,2.6-0.7,3.1-2C111.4,99.2,110.6,97.2,108.8,96.4z"/>
	<path class="st0" d="M159.5,0c-10.8,0-19.6,8.8-19.6,19.6c0,18.7,19.6,43.1,19.6,43.1s19.6-24.4,19.6-43.1
		C179.1,8.8,170.3,0,159.5,0z M159.5,30.4c-5.8,0-10.6-4.7-10.6-10.6c0-5.8,4.7-10.6,10.6-10.6c5.8,0,10.6,4.7,10.6,10.6
		C170.1,25.7,165.4,30.4,159.5,30.4z"/>
</g>
</svg>
