<?xml version="1.0" encoding="utf-8"?>
<!-- Generator: Adobe Illustrator 23.0.1, SVG Export Plug-In . SVG Version: 6.00 Build 0)  -->
<svg version="1.1" id="Layer_5" xmlns="http://www.w3.org/2000/svg" xmlns:xlink="http://www.w3.org/1999/xlink" x="0px" y="0px"
	 viewBox="0 0 217.1 208.2" style="enable-background:new 0 0 217.1 208.2;" xml:space="preserve">
<style type="text/css">
	.st0{fill:#64BDEB;}
</style>
<g>
	<path class="st0" d="M151.6,205.4H0V15.5C0,7,7,0,15.5,0h120.6c8.5,0,15.5,7,15.5,15.5V205.4z M7,198.4h137.6V15.5
		c0-4.7-3.8-8.5-8.5-8.5H15.5C10.8,7,7,10.8,7,15.5V198.4z M132.8,74.6h-114V19.7h114V74.6z M25.8,67.6h100V26.7h-100V67.6z"/>
	<g>
		<g>
			<g>
				<path class="st0" d="M194.4,208.2c-5.6,0-10.5-2.3-11.9-3c-19.8-6.3-23.4-46.7-23.7-51.3c-1.8-21.1-12.6-28.6-12.7-28.7l-1.5-1
					V96.3l5.4,3.5c0.4,0.3,10.7,7,19.9,17.9c4.1,4.8,7.8,14.4,10.9,28.5c2.1,9.4,3.2,17.6,3.4,19.1c2.7,9.7,4.7,13.8,5.8,15.5
					c0.3-0.6,0.5-1.4,0.7-2.2l0.5-74.6c-7.2-3.7-17.8-13.5-19.7-18.8c-1.6-4.4-0.3-15.3,1.3-28c0.2-1.6,0.4-3,0.5-4.3
					c0.3-2.8-3.5-11.2-13.1-21.2l-2.7-2.8l17.7-13.7l2.1,3.1c0.2,0.2,15.7,23.7,24.3,35.5c8.8,12.2,14.8,27.1,15.1,27.7l0.3,0.7
					l0,0.7c0,0-2.7,66-4,99.3c-0.5,12.2-4,20.2-10.5,23.8C199.9,207.7,197.1,208.2,194.4,208.2z M151.6,120.6
					c3.6,3.2,12.5,13,14.2,32.7c0.9,11.3,6,41.4,19.1,45.2l0.4,0.1l0.3,0.2c0.1,0,8,4.4,13.6,1.2c4.1-2.3,6.5-8.5,6.9-17.9
					c1.2-31.2,3.7-91.1,4-98.6c-1.3-3-6.7-15.5-14-25.6c-6.7-9.3-17.8-25.8-22.3-32.7l-5.7,4.4c4.8,5.4,13.2,16.3,12.3,24
					c-0.2,1.3-0.3,2.7-0.5,4.3c-0.9,7-2.8,21.6-1.6,24.8c1.2,3.3,12.1,13.7,17.7,15.5l2.4,0.8l-0.6,80.2l-0.1,0.3
					c-0.5,2.7-2.3,8.9-7.2,9.1c-5,0.2-8.7-5.9-13-21.8l-0.1-0.5c-1.2-9.6-6-36.2-12.8-44.2c-4.5-5.3-9.4-9.6-13-12.5V120.6z"/>
			</g>
		</g>
	</g>
</g>
<path class="st0" d="M198.7,90.5l-5.2-1.4c-6-2.4-6.9-7.3-6.9-7.5l0-0.3V62.1l3.4,3.4c0.1,0.1,5.1,5.1,8.4,8.7
	c4,4.4,1.3,13.4,0.9,14.5L198.7,90.5z M194.8,85.3l1.1,0.3c0.7-3,1-7-0.6-8.7c-1.5-1.6-3.3-3.5-4.9-5.1V81
	C190.7,81.5,191.5,83.9,194.8,85.3z"/>
</svg>
