<?xml version="1.0" encoding="utf-8"?>
<!-- Generator: Adobe Illustrator 23.0.1, SVG Export Plug-In . SVG Version: 6.00 Build 0)  -->
<svg version="1.1" id="Arrow_1_" xmlns="http://www.w3.org/2000/svg" xmlns:xlink="http://www.w3.org/1999/xlink" x="0px" y="0px"
	 viewBox="0 0 500 302.8" style="enable-background:new 0 0 500 302.8;" xml:space="preserve">
<style type="text/css">
	.st0{fill:#AEAEAE;}
</style>
<g>
	<path class="st0" d="M428.6,165.2H11.9c-6.6,0-11.9-5.3-11.9-11.9s5.3-11.9,11.9-11.9h416.7c26.3,0,47.6-21.4,47.6-47.6
		s-21.4-47.6-47.6-47.6c-26.3,0-47.6,21.4-47.6,47.6c0,6.6-5.3,11.9-11.9,11.9s-11.9-5.3-11.9-11.9c0-39.4,32-71.4,71.4-71.4
		s71.4,32,71.4,71.4S468,165.2,428.6,165.2z"/>
	<path class="st0" d="M268.6,105.6H41.7c-6.6,0-11.9-5.3-11.9-11.9c0-6.6,5.3-11.9,11.9-11.9h226.9c16,0,29-13,29-29s-13-29-29-29
		s-29,13-29,29c0,6.6-5.3,11.9-11.9,11.9s-11.9-5.3-11.9-11.9c0-29.1,23.7-52.8,52.8-52.8s52.8,23.7,52.8,52.8
		S297.7,105.6,268.6,105.6z"/>
	<path class="st0" d="M328.1,302.8c-29.1,0-52.8-23.7-52.8-52.8c0-6.6,5.3-11.9,11.9-11.9s11.9,5.3,11.9,11.9c0,16,13,29,29,29
		s29-13,29-29s-13-29-29-29H41.7c-6.6,0-11.9-5.3-11.9-11.9s5.3-11.9,11.9-11.9h286.5c29.1,0,52.8,23.7,52.8,52.8
		S357.3,302.8,328.1,302.8z"/>
</g>
</svg>
