<?xml version="1.0" encoding="utf-8"?>
<!-- Generator: Adobe Illustrator 23.0.1, SVG Export Plug-In . SVG Version: 6.00 Build 0)  -->
<svg version="1.1" id="Arrow_1_" xmlns="http://www.w3.org/2000/svg" xmlns:xlink="http://www.w3.org/1999/xlink" x="0px" y="0px"
	 viewBox="0 0 500 500" style="enable-background:new 0 0 500 500;" xml:space="preserve">
<style type="text/css">
	.st0{fill:#AEAEAE;}
</style>
<path class="st0" d="M421.2,324.2c-1.2-74.7-32.8-146.5-68.6-204.3c-31.7-51.3-66.7-91.5-86.5-112.6c-0.4-0.4-0.7-0.7-1-1.1
	c-0.1,0-0.1-0.1-0.2-0.2c-3.8-3.7-9.1-6-14.9-6s-11.1,2.3-14.9,6.1c-0.1,0.1-0.1,0.1-0.2,0.2c-0.3,0.4-0.6,0.7-1,1.1
	C191.3,52.7,78.7,186.1,78.7,328.7C78.7,423.3,155.4,500,250,500c72.6,0,134.7-45.2,159.6-109c7.5-19.3,11.7-40.3,11.7-62.3
	C421.3,327.2,421.2,325.7,421.2,324.2z M281.2,434.6c-0.3,0.1-0.7,0.2-1,0.2l0,0c-8.2,1.9-16.8,2.9-25.6,2.9
	c-62.7,0-113.6-50.8-113.6-113.6c0-8.8,1-17.4,2.9-25.6c0.1-0.6,0.3-1.1,0.5-1.7c1.6-5.1,6.4-8.8,12-8.8c5.5,0,10.1,3.5,11.9,8.4
	c0.5,1.2,0.7,2.5,0.7,3.9c11,55.2,54.6,98.7,109.9,109.6c0.9,0.1,1.7,0.3,2.5,0.5c5.2,1.5,9,6.3,9,12.1S286.5,433.1,281.2,434.6z"/>
</svg>
