<?xml version="1.0" encoding="utf-8"?>
<!-- Generator: Adobe Illustrator 23.0.1, SVG Export Plug-In . SVG Version: 6.00 Build 0)  -->
<svg version="1.1" id="Arrow_1_" xmlns="http://www.w3.org/2000/svg" xmlns:xlink="http://www.w3.org/1999/xlink" x="0px" y="0px"
	 viewBox="0 0 500 500" style="enable-background:new 0 0 500 500;" xml:space="preserve">
<style type="text/css">
	.st0{fill:#AEAEAE;}
</style>
<g id="_x33_08-steering-wheel.png">
	<g>
		<path class="st0" d="M250,0C111.9,0,0,111.9,0,250s111.9,250,250,250s250-111.9,250-250S388.1,0,250,0z M250,53.6
			c77.8,0,144.9,45.5,176.7,111.2l-107.6,29.4C302.7,174,278,160.8,250,160.8s-52.7,13.2-69.1,33.4L73.3,164.8
			C105.1,99.1,172.2,53.6,250,53.6z M214.3,443C123,426.1,53.6,346.1,53.6,250c0-5.5,0.4-10.9,0.8-16.3L162,263
			c4.6,30.9,24.6,56.6,52.3,68.7V443z M250,267.9c-9.8,0-17.9-8-17.9-17.9s8-17.9,17.9-17.9s17.9,8,17.9,17.9S259.9,267.9,250,267.9
			z M285.7,443V331.8c27.7-12.1,47.7-37.9,52.2-68.7l107.6-29.4c0.5,5.4,0.8,10.8,0.8,16.3C446.4,346.1,377,426.1,285.7,443z"/>
	</g>
</g>
</svg>
